<mxfile host="65bd71144e">
    <diagram id="Qv6sRygTkiiGk1gJ5XFq" name="Página-1">
        <mxGraphModel dx="1040" dy="560" grid="1" gridSize="10" guides="1" tooltips="1" connect="1" arrows="1" fold="1" page="1" pageScale="1" pageWidth="827" pageHeight="1169" math="0" shadow="0">
            <root>
                <mxCell id="0"/>
                <mxCell id="1" parent="0"/>
                <mxCell id="2" value="Formas" style="swimlane;fontStyle=0;childLayout=stackLayout;horizontal=1;startSize=26;fillColor=none;horizontalStack=0;resizeParent=1;resizeParentMax=0;resizeLast=0;collapsible=1;marginBottom=0;" vertex="1" parent="1">
                    <mxGeometry x="335" y="20" width="192" height="52" as="geometry"/>
                </mxCell>
                <mxCell id="5" value="Colores: 1..* enumeración colores" style="text;strokeColor=none;fillColor=none;align=left;verticalAlign=top;spacingLeft=4;spacingRight=4;overflow=hidden;rotatable=0;points=[[0,0.5],[1,0.5]];portConstraint=eastwest;" vertex="1" parent="2">
                    <mxGeometry y="26" width="192" height="26" as="geometry"/>
                </mxCell>
                <mxCell id="6" value="Elipse" style="swimlane;fontStyle=0;childLayout=stackLayout;horizontal=1;startSize=26;fillColor=none;horizontalStack=0;resizeParent=1;resizeParentMax=0;resizeLast=0;collapsible=1;marginBottom=0;" vertex="1" parent="1">
                    <mxGeometry x="662" y="290" width="140" height="78" as="geometry"/>
                </mxCell>
                <mxCell id="7" value="Eje menor: 1 número" style="text;strokeColor=none;fillColor=none;align=left;verticalAlign=top;spacingLeft=4;spacingRight=4;overflow=hidden;rotatable=0;points=[[0,0.5],[1,0.5]];portConstraint=eastwest;" vertex="1" parent="6">
                    <mxGeometry y="26" width="140" height="26" as="geometry"/>
                </mxCell>
                <mxCell id="8" value="Eje mayor: 1 número" style="text;strokeColor=none;fillColor=none;align=left;verticalAlign=top;spacingLeft=4;spacingRight=4;overflow=hidden;rotatable=0;points=[[0,0.5],[1,0.5]];portConstraint=eastwest;" vertex="1" parent="6">
                    <mxGeometry y="52" width="140" height="26" as="geometry"/>
                </mxCell>
                <mxCell id="10" value="Círculo" style="swimlane;fontStyle=0;childLayout=stackLayout;horizontal=1;startSize=26;fillColor=none;horizontalStack=0;resizeParent=1;resizeParentMax=0;resizeLast=0;collapsible=1;marginBottom=0;" vertex="1" parent="1">
                    <mxGeometry x="440" y="290" width="140" height="52" as="geometry"/>
                </mxCell>
                <mxCell id="11" value="Diámetro: 1 número" style="text;strokeColor=none;fillColor=none;align=left;verticalAlign=top;spacingLeft=4;spacingRight=4;overflow=hidden;rotatable=0;points=[[0,0.5],[1,0.5]];portConstraint=eastwest;" vertex="1" parent="10">
                    <mxGeometry y="26" width="140" height="26" as="geometry"/>
                </mxCell>
                <mxCell id="14" value="Rectángulo" style="swimlane;fontStyle=0;childLayout=stackLayout;horizontal=1;startSize=26;fillColor=none;horizontalStack=0;resizeParent=1;resizeParentMax=0;resizeLast=0;collapsible=1;marginBottom=0;" vertex="1" parent="1">
                    <mxGeometry x="260" y="290" width="140" height="70" as="geometry"/>
                </mxCell>
                <mxCell id="15" value="Altura: 1 número&#10;Longitud: 1 número" style="text;strokeColor=none;fillColor=none;align=left;verticalAlign=top;spacingLeft=4;spacingRight=4;overflow=hidden;rotatable=0;points=[[0,0.5],[1,0.5]];portConstraint=eastwest;" vertex="1" parent="14">
                    <mxGeometry y="26" width="140" height="44" as="geometry"/>
                </mxCell>
                <mxCell id="18" value="Cuadrado" style="swimlane;fontStyle=0;childLayout=stackLayout;horizontal=1;startSize=26;fillColor=none;horizontalStack=0;resizeParent=1;resizeParentMax=0;resizeLast=0;collapsible=1;marginBottom=0;" vertex="1" parent="1">
                    <mxGeometry x="40" y="290" width="140" height="52" as="geometry"/>
                </mxCell>
                <mxCell id="19" value="Lingitud: 1 número" style="text;strokeColor=none;fillColor=none;align=left;verticalAlign=top;spacingLeft=4;spacingRight=4;overflow=hidden;rotatable=0;points=[[0,0.5],[1,0.5]];portConstraint=eastwest;" vertex="1" parent="18">
                    <mxGeometry y="26" width="140" height="26" as="geometry"/>
                </mxCell>
                <mxCell id="22" value="Cónicas" style="swimlane;fontStyle=0;childLayout=stackLayout;horizontal=1;startSize=26;fillColor=none;horizontalStack=0;resizeParent=1;resizeParentMax=0;resizeLast=0;collapsible=1;marginBottom=0;" vertex="1" parent="1">
                    <mxGeometry x="527" y="160" width="140" height="52" as="geometry"/>
                </mxCell>
                <mxCell id="25" value="  " style="text;strokeColor=none;fillColor=none;align=left;verticalAlign=top;spacingLeft=4;spacingRight=4;overflow=hidden;rotatable=0;points=[[0,0.5],[1,0.5]];portConstraint=eastwest;" vertex="1" parent="22">
                    <mxGeometry y="26" width="140" height="26" as="geometry"/>
                </mxCell>
                <mxCell id="26" value="Cuadrilátero" style="swimlane;fontStyle=0;childLayout=stackLayout;horizontal=1;startSize=26;fillColor=none;horizontalStack=0;resizeParent=1;resizeParentMax=0;resizeLast=0;collapsible=1;marginBottom=0;" vertex="1" parent="1">
                    <mxGeometry x="185" y="160" width="140" height="52" as="geometry"/>
                </mxCell>
                <mxCell id="27" value="  " style="text;strokeColor=none;fillColor=none;align=left;verticalAlign=top;spacingLeft=4;spacingRight=4;overflow=hidden;rotatable=0;points=[[0,0.5],[1,0.5]];portConstraint=eastwest;" vertex="1" parent="26">
                    <mxGeometry y="26" width="140" height="26" as="geometry"/>
                </mxCell>
                <mxCell id="30" value="" style="endArrow=none;html=1;entryX=0.5;entryY=0;entryDx=0;entryDy=0;exitX=0.429;exitY=0.014;exitDx=0;exitDy=0;exitPerimeter=0;" edge="1" parent="1" source="26" target="22">
                    <mxGeometry width="50" height="50" relative="1" as="geometry">
                        <mxPoint x="325" y="186" as="sourcePoint"/>
                        <mxPoint x="475" y="230" as="targetPoint"/>
                        <Array as="points">
                            <mxPoint x="245" y="140"/>
                            <mxPoint x="420" y="140"/>
                            <mxPoint x="597" y="140"/>
                        </Array>
                    </mxGeometry>
                </mxCell>
                <mxCell id="31" value="" style="endArrow=none;html=1;entryX=0.546;entryY=0.02;entryDx=0;entryDy=0;entryPerimeter=0;exitX=0.5;exitY=0;exitDx=0;exitDy=0;" edge="1" parent="1" source="18" target="14">
                    <mxGeometry width="50" height="50" relative="1" as="geometry">
                        <mxPoint x="180" y="320" as="sourcePoint"/>
                        <mxPoint x="230" y="270" as="targetPoint"/>
                        <Array as="points">
                            <mxPoint x="110" y="270"/>
                            <mxPoint x="220" y="270"/>
                            <mxPoint x="336" y="270"/>
                        </Array>
                    </mxGeometry>
                </mxCell>
                <mxCell id="32" value="" style="endArrow=none;html=1;exitX=0.5;exitY=0;exitDx=0;exitDy=0;entryX=0.5;entryY=0;entryDx=0;entryDy=0;" edge="1" parent="1" source="10" target="6">
                    <mxGeometry width="50" height="50" relative="1" as="geometry">
                        <mxPoint x="420" y="250" as="sourcePoint"/>
                        <mxPoint x="470" y="200" as="targetPoint"/>
                        <Array as="points">
                            <mxPoint x="510" y="270"/>
                            <mxPoint x="620" y="270"/>
                            <mxPoint x="732" y="270"/>
                        </Array>
                    </mxGeometry>
                </mxCell>
                <mxCell id="34" value="Extends" style="endArrow=block;endSize=16;endFill=0;html=1;entryX=0.5;entryY=1;entryDx=0;entryDy=0;" edge="1" parent="1" target="2">
                    <mxGeometry width="160" relative="1" as="geometry">
                        <mxPoint x="430" y="140" as="sourcePoint"/>
                        <mxPoint x="520" y="220" as="targetPoint"/>
                    </mxGeometry>
                </mxCell>
                <mxCell id="35" value="Extends" style="endArrow=block;endSize=16;endFill=0;html=1;entryX=0.393;entryY=1.308;entryDx=0;entryDy=0;entryPerimeter=0;" edge="1" parent="1" target="27">
                    <mxGeometry width="160" relative="1" as="geometry">
                        <mxPoint x="240" y="270" as="sourcePoint"/>
                        <mxPoint x="520" y="220" as="targetPoint"/>
                    </mxGeometry>
                </mxCell>
                <mxCell id="36" value="Extends" style="endArrow=block;endSize=16;endFill=0;html=1;entryX=0.5;entryY=1;entryDx=0;entryDy=0;" edge="1" parent="1" target="22">
                    <mxGeometry width="160" relative="1" as="geometry">
                        <mxPoint x="600" y="270" as="sourcePoint"/>
                        <mxPoint x="520" y="220" as="targetPoint"/>
                    </mxGeometry>
                </mxCell>
            </root>
        </mxGraphModel>
    </diagram>
</mxfile>
